<?xml version="1.0" encoding="UTF-8" standalone="no"?>
<svg
   xmlns:dc="http://purl.org/dc/elements/1.1/"
   xmlns:cc="http://creativecommons.org/ns#"
   xmlns:rdf="http://www.w3.org/1999/02/22-rdf-syntax-ns#"
   xmlns:svg="http://www.w3.org/2000/svg"
   xmlns="http://www.w3.org/2000/svg"
   xmlns:sodipodi="http://sodipodi.sourceforge.net/DTD/sodipodi-0.dtd"
   xmlns:inkscape="http://www.inkscape.org/namespaces/inkscape"
   viewBox="0 0 512 512"
   version="1.1"
   id="svg984"
   sodipodi:docname="direct.svg"
   inkscape:version="0.92.5 (2060ec1f9f, 2020-04-08)">
  <metadata
     id="metadata988">
    <rdf:RDF>
      <cc:Work
         rdf:about="">
        <dc:format>image/svg+xml</dc:format>
        <dc:type
           rdf:resource="http://purl.org/dc/dcmitype/StillImage" />
        <dc:title></dc:title>
      </cc:Work>
    </rdf:RDF>
  </metadata>
  <sodipodi:namedview
     pagecolor="#ffffff"
     bordercolor="#666666"
     borderopacity="1"
     objecttolerance="10"
     gridtolerance="10"
     guidetolerance="10"
     inkscape:pageopacity="0"
     inkscape:pageshadow="2"
     inkscape:window-width="860"
     inkscape:window-height="480"
     id="namedview986"
     showgrid="false"
     inkscape:zoom="0.4609375"
     inkscape:cx="187.66102"
     inkscape:cy="256"
     inkscape:window-x="0"
     inkscape:window-y="0"
     inkscape:window-maximized="0"
     inkscape:current-layer="svg984" />
  <defs
     id="defs978">
    <style
       id="style976">.fa-secondary{opacity:.4}</style>
  </defs>
  <path
     d="M400 320h32a16 16 0 0 1 16 16v128a48 48 0 0 1-48 48H48a48 48 0 0 1-48-48V112a48 48 0 0 1 48-48h160a16 16 0 0 1 16 16v32a16 16 0 0 1-16 16H64v320h320V336a16 16 0 0 1 16-16z"
     class="fa-secondary"
     id="path980"
     style="fill:#b3b3b3" />
  <path
     d="M484 224h-17.88a28 28 0 0 1-28-28v-.78L440 128 192.91 376.91A24 24 0 0 1 159 377l-.06-.06L135 353.09a24 24 0 0 1 0-33.94l.06-.06L384 72l-67.21 1.9A28 28 0 0 1 288 46.68V28a28 28 0 0 1 28-28h158.67A37.33 37.33 0 0 1 512 37.33V196a28 28 0 0 1-28 28z"
     class="fa-primary"
     id="path982"
     style="fill:#f2f2f2" />
</svg>
