<?xml version="1.0" encoding="UTF-8" standalone="no"?>
<!-- Generator: Adobe Illustrator 16.0.0, SVG Export Plug-In . SVG Version: 6.00 Build 0)  -->

<svg
   xmlns:dc="http://purl.org/dc/elements/1.1/"
   xmlns:cc="http://creativecommons.org/ns#"
   xmlns:rdf="http://www.w3.org/1999/02/22-rdf-syntax-ns#"
   xmlns:svg="http://www.w3.org/2000/svg"
   xmlns="http://www.w3.org/2000/svg"
   xmlns:sodipodi="http://sodipodi.sourceforge.net/DTD/sodipodi-0.dtd"
   xmlns:inkscape="http://www.inkscape.org/namespaces/inkscape"
   version="1.1"
   id="Capa_1"
   x="0px"
   y="0px"
   width="45.743px"
   height="45.743px"
   viewBox="0 0 45.743 45.743"
   style="enable-background:new 0 0 45.743 45.743;"
   xml:space="preserve"
   sodipodi:docname="heart.svg"
   inkscape:version="0.92.5 (2060ec1f9f, 2020-04-08)"><metadata
   id="metadata41"><rdf:RDF><cc:Work
       rdf:about=""><dc:format>image/svg+xml</dc:format><dc:type
         rdf:resource="http://purl.org/dc/dcmitype/StillImage" /><dc:title></dc:title></cc:Work></rdf:RDF></metadata><defs
   id="defs39" /><sodipodi:namedview
   pagecolor="#ffffff"
   bordercolor="#666666"
   borderopacity="1"
   objecttolerance="10"
   gridtolerance="10"
   guidetolerance="10"
   inkscape:pageopacity="0"
   inkscape:pageshadow="2"
   inkscape:window-width="860"
   inkscape:window-height="480"
   id="namedview37"
   showgrid="false"
   inkscape:zoom="5.1592593"
   inkscape:cx="25.408663"
   inkscape:cy="22.8715"
   inkscape:window-x="0"
   inkscape:window-y="0"
   inkscape:window-maximized="0"
   inkscape:current-layer="Capa_1" />
<g
   id="g4"
   style="fill:#f2f2f2">
	<path
   d="M34.199,3.83c-3.944,0-7.428,1.98-9.51,4.997c0,0-0.703,1.052-1.818,1.052c-1.114,0-1.817-1.052-1.817-1.052   c-2.083-3.017-5.565-4.997-9.51-4.997C5.168,3.83,0,8.998,0,15.376c0,1.506,0.296,2.939,0.82,4.258   c3.234,10.042,17.698,21.848,22.051,22.279c4.354-0.431,18.816-12.237,22.052-22.279c0.524-1.318,0.82-2.752,0.82-4.258   C45.743,8.998,40.575,3.83,34.199,3.83z"
   id="path2"
   style="fill:#f2f2f2" />
</g>
<g
   id="g6">
</g>
<g
   id="g8">
</g>
<g
   id="g10">
</g>
<g
   id="g12">
</g>
<g
   id="g14">
</g>
<g
   id="g16">
</g>
<g
   id="g18">
</g>
<g
   id="g20">
</g>
<g
   id="g22">
</g>
<g
   id="g24">
</g>
<g
   id="g26">
</g>
<g
   id="g28">
</g>
<g
   id="g30">
</g>
<g
   id="g32">
</g>
<g
   id="g34">
</g>
</svg>